<?xml version="1.0" standalone="no"?>
<!DOCTYPE svg PUBLIC "-//W3C//DTD SVG 20010904//EN"
 "http://www.w3.org/TR/2001/REC-SVG-20010904/DTD/svg10.dtd">
<svg version="1.0" xmlns="http://www.w3.org/2000/svg"
 width="512.000000pt" height="512.000000pt" viewBox="0 0 512.000000 512.000000"
 preserveAspectRatio="xMidYMid meet">
<metadata>
Created by potrace 1.13, written by Peter Selinger 2001-2015
</metadata>
<g transform="translate(0.000000,512.000000) scale(0.100000,-0.100000)"
fill="#000000" stroke="none">
<path d="M3656 4060 c-32 -10 -106 -59 -106 -70 0 -4 42 -6 93 -6 114 1 176
-14 296 -70 52 -24 96 -42 98 -40 19 18 -94 121 -175 161 -61 30 -155 41 -206
25z"/>
<path d="M2648 4017 c-20 -8 -56 -26 -80 -40 -64 -37 -163 -147 -133 -147 3 0
40 17 83 39 128 64 174 76 294 76 68 0 107 4 105 10 -2 6 -23 23 -46 40 -36
25 -53 30 -114 32 -43 2 -87 -2 -109 -10z"/>
<path d="M3721 3354 c-96 -26 -177 -105 -202 -198 -15 -56 -6 -153 20 -203 26
-53 80 -105 129 -127 l39 -18 68 42 c80 49 95 56 195 85 67 20 75 26 86 56 14
38 17 134 5 164 -7 17 -10 16 -25 -16 -21 -46 -62 -69 -121 -69 -42 0 -52 5
-87 40 -39 39 -40 42 -36 95 l5 54 -54 7 c-43 5 -51 9 -42 20 22 27 104 46
171 38 78 -8 70 8 -17 30 -70 19 -65 19 -134 0z"/>
<path d="M2547 3326 c-132 -47 -214 -189 -187 -321 10 -50 14 -55 38 -55 50 0
190 -57 266 -107 73 -49 75 -50 106 -35 53 26 115 104 134 170 19 69 20 93 4
147 l-11 40 -8 -29 c-26 -94 -151 -124 -218 -52 -28 30 -42 88 -31 127 8 28 8
29 -28 30 -20 0 -46 4 -57 8 -18 7 -14 11 25 31 40 20 53 22 128 16 91 -7 100
3 25 28 -56 19 -134 20 -186 2z"/>
<path d="M1485 2440 c4 -6 172 -10 471 -10 406 0 464 -2 464 -15 0 -10 -10
-15 -28 -15 -21 0 -33 -9 -52 -40 l-25 -40 -167 0 -168 0 -32 -29 c-27 -24
-32 -36 -36 -88 -3 -43 0 -69 12 -91 28 -55 56 -62 234 -62 l160 0 26 -35 c18
-23 35 -35 52 -35 17 0 24 -5 24 -20 0 -20 -7 -20 -634 -20 l-635 0 -28 24
c-28 24 -28 25 -34 173 l-5 148 -2 -145 c-2 -155 3 -176 49 -201 14 -7 230
-12 665 -16 l644 -6 0 32 c0 29 2 31 36 31 28 0 46 9 78 37 l41 38 3 -73 3
-72 59 0 60 0 0 110 0 110 30 0 30 0 0 -110 0 -110 60 0 60 0 0 110 c0 103 1
110 20 110 19 0 20 -7 20 -110 l0 -110 60 0 60 0 0 110 0 110 30 0 30 0 0
-110 0 -110 60 0 60 0 0 110 c0 103 1 110 20 110 19 0 20 -7 20 -110 l0 -110
60 0 60 0 0 110 0 110 30 0 30 0 0 -110 0 -110 60 0 60 0 0 110 c0 103 1 110
20 110 19 0 20 -7 20 -110 l0 -110 60 0 60 0 0 110 0 110 30 0 30 0 0 -110 0
-110 60 0 60 0 0 110 0 110 30 0 c23 0 30 4 30 20 0 11 5 20 10 20 6 0 10 -45
10 -115 l0 -115 155 0 155 0 0 180 0 180 -155 0 -155 0 0 50 0 50 -60 0 -59 0
-3 -112 c-3 -105 -4 -113 -23 -113 -19 0 -20 8 -23 113 l-3 112 -59 0 -59 0
-3 -112 c-3 -109 -4 -113 -25 -116 -23 -3 -23 -2 -23 112 l0 116 -60 0 -59 0
-3 -112 c-3 -105 -4 -113 -23 -113 -19 0 -20 8 -23 113 l-3 112 -59 0 -59 0
-3 -112 c-3 -109 -4 -113 -25 -116 -23 -3 -23 -2 -23 112 l0 116 -60 0 -59 0
-3 -112 c-3 -109 -4 -113 -25 -116 -23 -3 -23 -2 -23 112 l0 116 -60 0 -59 0
-3 -112 -3 -113 -25 0 -25 0 -3 113 -3 112 -59 0 -60 0 0 -115 c0 -108 -1
-115 -20 -115 -19 0 -20 7 -20 115 l0 115 -60 0 -60 0 0 -75 c0 -75 -7 -88
-30 -60 -7 8 -23 15 -36 15 -18 0 -24 6 -24 21 0 12 -18 38 -42 60 -34 30 -51
38 -80 39 -34 0 -38 3 -38 25 l0 25 -481 0 c-317 0 -478 -3 -474 -10z m1055
-86 c22 -20 40 -45 40 -55 0 -18 -9 -19 -135 -19 -74 0 -135 3 -135 6 0 4 16
28 36 55 l36 49 59 0 c54 0 62 -3 99 -36z m250 -66 c0 -121 -5 -138 -39 -138
-38 0 -51 37 -51 142 l0 88 45 0 45 0 0 -92z m170 4 c0 -101 -14 -142 -47
-142 -14 0 -23 6 -23 15 0 8 -4 15 -10 15 -6 0 -10 40 -10 100 l0 100 45 0 45
0 0 -88z m170 -4 c0 -121 -5 -138 -39 -138 -38 0 -51 37 -51 142 l0 88 45 0
45 0 0 -92z m170 -8 c0 -60 -4 -100 -10 -100 -5 0 -10 -7 -10 -15 0 -9 -9 -15
-22 -15 -34 0 -48 41 -48 142 l0 88 45 0 45 0 0 -100z m180 12 c0 -105 -13
-142 -51 -142 -34 0 -39 17 -39 138 l0 92 45 0 45 0 0 -88z m160 -4 c0 -121
-5 -138 -39 -138 -38 0 -51 37 -51 142 l0 88 45 0 45 0 0 -92z m180 4 c0 -105
-13 -142 -51 -142 -34 0 -39 17 -39 138 l0 92 45 0 45 0 0 -88z m160 -4 c0
-121 -5 -138 -39 -138 -38 0 -51 37 -51 142 l0 88 45 0 45 0 0 -92z m-1686 7
c-5 -12 -26 -15 -101 -15 -86 0 -96 -2 -118 -25 -31 -30 -34 -92 -6 -126 17
-22 29 -24 123 -29 75 -4 103 -9 103 -18 0 -18 -291 -20 -324 -2 -33 17 -54
74 -46 124 16 94 40 105 232 106 123 0 142 -2 137 -15z m2004 -172 l-3 -168
-140 0 -140 0 -3 168 -2 167 145 0 145 0 -2 -167z m-1642 124 c35 -30 37 -79
5 -110 -21 -21 -30 -22 -269 -25 -135 -2 -257 0 -269 3 -71 17 -85 119 -20
145 12 5 135 9 274 9 250 1 252 1 279 -22z m214 -113 c6 -14 10 -68 10 -120
l0 -94 -45 0 -45 0 0 100 c0 60 4 100 10 100 6 0 10 9 10 20 0 32 48 27 60 -6z
m164 -5 c3 -17 6 -72 6 -121 l0 -89 -42 3 -43 3 -3 98 c-2 62 1 97 8 97 5 0
10 9 10 20 0 15 7 20 29 20 24 0 29 -5 35 -31z m176 5 c6 -14 10 -68 10 -120
l0 -95 -42 3 -43 3 -3 98 c-2 62 1 97 8 97 5 0 10 9 10 20 0 32 48 27 60 -6z
m160 6 c0 -11 5 -20 10 -20 7 0 10 -35 8 -97 l-3 -98 -42 -3 -43 -3 0 89 c0
130 6 152 41 152 22 0 29 -5 29 -20z m184 -11 c3 -17 6 -72 6 -121 l0 -89 -42
3 -43 3 -3 98 c-2 62 1 97 8 97 5 0 10 9 10 20 0 15 7 20 29 20 24 0 29 -5 35
-31z m156 11 c0 -11 5 -20 10 -20 7 0 10 -35 8 -97 l-3 -98 -42 -3 -43 -3 0
95 c0 114 10 146 45 146 18 0 25 -5 25 -20z m180 0 c0 -11 5 -20 10 -20 7 0
10 -35 8 -97 l-3 -98 -42 -3 -43 -3 0 95 c0 114 10 146 45 146 18 0 25 -5 25
-20z m-1192 -119 l3 -102 -43 3 -43 3 -3 85 -2 85 32 16 c18 9 38 15 43 14 6
-1 11 -46 13 -104z m-118 60 c0 -11 -19 -36 -42 -55 -37 -32 -48 -36 -99 -36
-57 0 -57 0 -93 50 -20 28 -36 52 -36 55 0 3 61 5 135 5 127 0 135 -1 135 -19z"/>
<path d="M1500 2379 c0 -7 49 -9 151 -7 l151 3 29 -33 c29 -32 29 -33 29 -158
0 -125 0 -126 -29 -155 l-29 -29 -295 0 -295 0 -31 26 c-30 25 -31 28 -31 109
0 50 -4 87 -11 91 -8 4 -10 -20 -8 -84 4 -84 6 -93 33 -121 l30 -31 307 0 307
0 31 26 31 26 0 139 c0 156 -7 179 -62 198 -41 15 -308 15 -308 0z"/>
</g>
</svg>
